<?xml version="1.0" encoding="UTF-8"?>
<svg version="1.1"
    xmlns="http://www.w3.org/2000/svg" width="980" height="980">
    <path d="M0 0 C323.4 0 646.8 0 980 0 C980 323.4 980 646.8 980 980 C656.6 980 333.2 980 0 980 C0 656.6 0 333.2 0 0 Z " fill="#FDFDFD" transform="translate(0,0)"/>
    <path d="M0 0 C1.03739571 -0.0098568 1.03739571 -0.0098568 2.0957489 -0.01991272 C4.37788006 -0.03957618 6.65994564 -0.05129227 8.94213867 -0.0612793 C9.72407782 -0.06535482 10.50601696 -0.06943035 11.31165123 -0.07362938 C15.44995227 -0.09445978 19.58822044 -0.10877496 23.7265625 -0.11816406 C27.9902884 -0.12922655 32.25349216 -0.16363284 36.51703358 -0.20333576 C39.80540406 -0.22953519 43.09365065 -0.23785878 46.38211632 -0.24144554 C47.95333066 -0.24630236 49.5245398 -0.25789053 51.09565163 -0.27648354 C53.29986123 -0.30094913 55.50272619 -0.29989747 57.70703125 -0.29296875 C59.584226 -0.30176811 59.584226 -0.30176811 61.49934387 -0.31074524 C66.85666751 0.42567682 70.47075199 2.69583577 74.43334961 6.41796875 C76.53612099 10.01195232 76.74886659 13.25908895 76.87573242 17.3215332 C76.91446472 18.09132004 76.95319702 18.86110687 76.99310303 19.65422058 C77.11210374 22.09887193 77.2052137 24.54371497 77.29760742 26.98950195 C77.37402277 28.65299283 77.45212952 30.31640692 77.53198242 31.97973633 C77.7234529 36.04486352 77.89172216 40.11036102 78.04760742 44.17700195 C79.19616211 44.61270508 80.3447168 45.0484082 81.52807617 45.49731445 C90.00896218 48.74024852 98.34710896 52.09783666 106.54370117 56.01293945 C109.08893675 57.25365656 109.08893675 57.25365656 112.04760742 58.17700195 C112.37051758 57.34942383 112.37051758 57.34942383 112.69995117 56.50512695 C114.49382558 53.40614392 116.95655285 51.27100942 119.61010742 48.92700195 C120.14369873 48.44827637 120.67729004 47.96955078 121.22705078 47.47631836 C122.31215946 46.50395457 123.39947142 45.53404372 124.48901367 44.56665039 C125.91515026 43.29510129 127.3259609 42.00641664 128.73510742 40.71606445 C129.51885742 40.00192383 130.30260742 39.2877832 131.11010742 38.55200195 C131.80233398 37.92036133 132.49456055 37.2887207 133.20776367 36.63793945 C136.08730058 34.35142819 138.79244944 33.98157536 142.36010742 33.86450195 C143.09874023 33.82711914 143.83737305 33.78973633 144.59838867 33.7512207 C151.65828619 34.97853941 156.67389725 41.60137236 161.42260742 46.48950195 C166.25227743 51.43643913 171.1062089 56.22710646 176.38720703 60.69482422 C178.5701622 62.64346718 180.27566247 64.85514305 182.04760742 67.17700195 C186.3101408 71.57182085 190.85023333 75.61483909 195.42651367 79.67700195 C200.23865236 84.26682126 203.45109658 88.34228938 204.48510742 94.98950195 C203.39459871 102.93463684 196.7773229 108.95176397 191.42260742 114.48950195 C190.42100586 115.54234375 190.42100586 115.54234375 189.39916992 116.61645508 C184.40599654 121.85429396 184.40599654 121.85429396 182.32861328 123.72485352 C180.73222563 125.19797946 180.73222563 125.19797946 181.15307617 127.9230957 C182.33744171 132.23129001 184.23645348 136.03870698 186.2565918 139.99536133 C189.2766345 146.14633383 191.13901603 152.60977216 193.04760742 159.17700195 C193.97508789 159.21664062 194.90256836 159.2562793 195.8581543 159.29711914 C199.33309063 159.45428143 202.80645479 159.62767718 206.2800293 159.81176758 C207.77711278 159.88784676 209.27453078 159.95763612 210.7722168 160.02075195 C226.3973131 160.68742273 226.3973131 160.68742273 233.04760742 165.17700195 C234.98510742 167.80200195 234.98510742 167.80200195 236.04760742 170.17700195 C236.37760742 170.83700195 236.70760742 171.49700195 237.04760742 172.17700195 C237.16039027 174.48326805 237.20701749 176.7928515 237.22460938 179.10180664 C237.23118057 179.81422516 237.23775177 180.52664368 237.24452209 181.26065063 C237.26426638 183.62339378 237.27592126 185.98607328 237.28588867 188.34887695 C237.2899642 189.15596352 237.29403973 189.96305008 237.29823875 190.79459381 C237.31910613 195.06789393 237.33340391 199.34116189 237.34277344 203.61450195 C237.35382838 208.02410694 237.38821539 212.43320596 237.42794514 216.84263229 C237.45412078 220.23647994 237.46246618 223.63020733 237.46605492 227.02414703 C237.47091989 228.64921733 237.48253142 230.27428228 237.50109291 231.89925385 C237.52550158 234.17811337 237.52451671 236.45566829 237.51757812 238.73461914 C237.52637749 240.6774881 237.52637749 240.6774881 237.53535461 242.65960693 C236.95888883 246.81679721 235.66511573 248.93315451 233.04760742 252.17700195 C222.31527905 260.28100501 205.80396547 257.28672317 193.04760742 257.17700195 C192.85932373 257.8220166 192.67104004 258.46703125 192.47705078 259.1315918 C189.88635538 267.90398105 187.06546333 276.62089943 182.67260742 284.67700195 C180.89384386 288.50818501 180.71688534 289.31907521 182.04760742 293.17700195 C184.08633974 295.66276211 184.08633974 295.66276211 186.67260742 297.98950195 C190.51040337 301.67378606 194.15855245 305.38347888 197.57495117 309.4621582 C199.13097813 311.34090329 199.13097813 311.34090329 201.48510742 313.42700195 C204.23856564 318.27308841 204.10394173 322.79437823 203.04760742 328.17700195 C201.65869141 330.31958008 201.65869141 330.31958008 199.66870117 332.39575195 C198.44509888 333.68195435 198.44509888 333.68195435 197.19677734 334.99414062 C196.14890627 336.05692383 195.09895726 337.11765996 194.04760742 338.17700195 C193.39788971 338.83673004 192.748172 339.49645813 192.07876587 340.17617798 C186.51909154 345.81491583 180.91120244 351.4045312 175.29760742 356.98950195 C173.59815462 358.6839287 171.89893402 360.37858836 170.19995117 362.07348633 C166.42255802 365.84101859 162.64291345 369.60627484 158.86117554 373.3694458 C157.28939892 374.93601199 155.72214413 376.50690779 154.15649414 378.07958984 C149.23156514 382.97772194 149.23156514 382.97772194 145.68041992 383.57543945 C144.8528418 383.56770508 144.02526367 383.5599707 143.17260742 383.55200195 C142.35018555 383.55973633 141.52776367 383.5674707 140.68041992 383.57543945 C134.02703898 382.56854798 130.09479693 378.58769157 125.67260742 373.92700195 C124.53783246 372.75974452 123.40111887 371.59436856 122.26245117 370.4309082 C121.71572754 369.87161621 121.16900391 369.31232422 120.60571289 368.73608398 C117.57648277 365.70495525 114.34201912 362.91405094 111.04760742 360.17700195 C107.74620151 361.44409084 104.65995806 362.87858055 101.54760742 364.55200195 C96.5322283 367.10104771 91.42721898 368.73704006 86.02807617 370.2824707 C83.28562992 371.10556401 80.69616269 372.09628409 78.04760742 373.17700195 C78.00385986 374.71239624 78.00385986 374.71239624 77.95922852 376.27880859 C77.84264599 380.10260765 77.68820405 383.92412537 77.52270508 387.74609375 C77.45649163 389.39545463 77.40033892 391.04525313 77.35473633 392.6953125 C76.91517046 408.17831861 76.91517046 408.17831861 73.21166992 412.6730957 C68.77490108 416.81202257 64.82330778 417.43631808 58.81982422 417.49926758 C58.09896637 417.50919739 57.37810852 417.5191272 56.63540649 417.52935791 C54.25584054 417.55851449 51.87654124 417.57219022 49.49682617 417.58325195 C47.83779395 417.59476238 46.17876177 417.60627775 44.51972961 417.61779785 C41.04211187 417.63879338 37.56458625 417.65049449 34.08691406 417.6574707 C29.64128395 417.66843353 25.19688111 417.71648006 20.75163555 417.77341461 C17.3242696 417.81075499 13.89719668 417.82108308 10.46964455 417.82414246 C8.8314118 417.83017746 7.19318311 417.84617411 5.55515099 417.87251282 C-8.8534013 418.08765073 -8.8534013 418.08765073 -13.39331055 414.31591797 C-18.1011439 409.18381739 -19.42055445 404.08143647 -19.63989258 397.23950195 C-19.67332764 396.50675049 -19.7067627 395.77399902 -19.74121094 395.01904297 C-20.04237963 387.74014768 -20.0478095 380.46049366 -19.95239258 373.17700195 C-21.16926758 372.78512695 -22.38614258 372.39325195 -23.63989258 371.98950195 C-32.71252402 368.95102633 -41.53026576 365.70109892 -49.83129883 360.8996582 C-51.9121928 359.96730152 -51.9121928 359.96730152 -53.90161133 360.72387695 C-56.65174133 362.6725405 -58.86142123 364.93992448 -61.20239258 367.36450195 C-65.60733526 371.86228886 -70.06309371 376.20444662 -74.95239258 380.17700195 C-75.73614258 380.81637695 -76.51989258 381.45575195 -77.32739258 382.11450195 C-81.42358018 383.77248265 -85.60324723 383.87014699 -89.95239258 383.17700195 C-93.80768572 381.14563118 -96.68992964 378.69663603 -99.77099609 375.63305664 C-101.16252647 374.25582428 -101.16252647 374.25582428 -102.58216858 372.85076904 C-103.58220833 371.85046782 -104.58191016 370.84982867 -105.58129883 369.84887695 C-106.61810374 368.81596359 -107.65513029 367.78327266 -108.69236755 366.75079346 C-110.86180661 364.5888005 -113.02735025 362.42299367 -115.19042969 360.25463867 C-117.95133722 357.48794328 -120.72342863 354.73276758 -123.49881077 351.98060226 C-125.64287266 349.85133392 -127.77990177 347.71511259 -129.9150219 345.57688141 C-130.93366802 344.55874582 -131.95465479 343.5429461 -132.97809029 342.52962494 C-144.97177126 330.63998716 -144.97177126 330.63998716 -146.44848633 323.91918945 C-146.21618246 316.51643948 -142.66628679 312.60946458 -137.76489258 307.42700195 C-136.78237062 306.37562004 -135.80060663 305.32352933 -134.81958008 304.27075195 C-134.33585937 303.75254883 -133.85213867 303.2343457 -133.35375977 302.70043945 C-130.66336672 299.77569162 -128.08943058 296.74725025 -125.51098633 293.72387695 C-123.95239258 292.17700195 -123.95239258 292.17700195 -121.95239258 292.17700195 C-125.15686491 284.4389292 -125.15686491 284.4389292 -128.45239258 276.73950195 C-129.8931776 273.31763752 -131.28007002 269.88178924 -132.63989258 266.42700195 C-133.29538086 264.76411133 -133.29538086 264.76411133 -133.96411133 263.06762695 C-134.95239258 260.17700195 -134.95239258 260.17700195 -134.95239258 257.17700195 C-136.48778687 257.1629834 -136.48778687 257.1629834 -138.05419922 257.14868164 C-141.87705905 257.10860027 -145.69912936 257.04279304 -149.52148438 256.96948242 C-151.17112024 256.94137739 -152.82088816 256.92011105 -154.47070312 256.90600586 C-156.85200083 256.88442962 -159.23172846 256.8377095 -161.61254883 256.78637695 C-162.34200211 256.78514832 -163.07145538 256.78391968 -163.82301331 256.78265381 C-169.23410012 256.63026939 -172.59186486 255.4601744 -176.95239258 252.17700195 C-178.94371852 247.63460054 -179.22798735 243.57029661 -179.29052734 238.64624023 C-179.3078315 237.55229446 -179.3078315 237.55229446 -179.32548523 236.43624878 C-179.35960515 234.03991475 -179.37825332 231.64383717 -179.39379883 229.24731445 C-179.40070173 228.42432735 -179.40760464 227.60134026 -179.41471672 226.75341415 C-179.4504671 222.39997942 -179.47405254 218.04667287 -179.48779297 213.69311523 C-179.50435202 209.21160485 -179.5628152 204.73166924 -179.63093662 200.25068855 C-179.6758282 196.78982991 -179.68929496 193.32934607 -179.69441032 189.86822128 C-179.70227624 188.21682858 -179.72183717 186.56544627 -179.7536335 184.91434097 C-180.01444736 170.41807265 -180.01444736 170.41807265 -175.53027344 165.16479492 C-172.17055142 162.04332338 -169.96097982 161.06233767 -165.40161133 160.8605957 C-164.4807373 160.81862061 -163.55986328 160.77664551 -162.61108398 160.73339844 C-161.63059082 160.6941626 -160.65009766 160.65492676 -159.63989258 160.61450195 C-158.64908691 160.57204346 -157.65828125 160.52958496 -156.63745117 160.48583984 C-149.40410783 160.19265997 -142.19181562 160.05406835 -134.95239258 160.17700195 C-134.68168945 159.02200195 -134.41098633 157.86700195 -134.13208008 156.67700195 C-133.05859553 152.39061024 -131.650694 148.30241446 -130.07739258 144.17700195 C-129.81635742 143.47929687 -129.55532227 142.7815918 -129.28637695 142.06274414 C-127.88297224 138.37492758 -126.36455851 134.88711174 -124.45239258 131.42700195 C-122.64558993 128.45970439 -122.64558993 128.45970439 -123.50708008 126.35668945 C-125.54304424 123.2862354 -128.03852043 120.70334836 -130.57739258 118.05200195 C-146.54462648 101.08395905 -146.54462648 101.08395905 -146.32965088 92.70361328 C-145.11258463 84.55255775 -135.55515954 77.4893841 -130.03051758 71.98950195 C-129.07952207 71.0371563 -128.12882337 70.08451418 -127.17840576 69.1315918 C-125.20150922 67.151769 -123.22109655 65.17555349 -121.23803711 63.2019043 C-118.69348537 60.66883991 -116.15814502 58.12677346 -113.62529373 55.58201599 C-111.67128103 53.62079664 -109.71255569 51.66434013 -107.75234222 49.70932007 C-106.35923071 48.318192 -104.97014748 46.92303372 -103.58111572 45.52783203 C-102.7397406 44.69276123 -101.89836548 43.85769043 -101.03149414 42.99731445 C-99.91946625 41.88767334 -99.91946625 41.88767334 -98.78497314 40.75561523 C-96.95239258 39.17700195 -96.95239258 39.17700195 -94.95239258 39.17700195 C-94.95239258 38.51700195 -94.95239258 37.85700195 -94.95239258 37.17700195 C-91.20204848 34.03155206 -87.85601482 33.70155776 -83.14770508 33.90356445 C-76.79521816 34.69479948 -73.25621761 38.65652463 -69.03442383 43.0559082 C-66.4157113 45.72375229 -63.61692801 48.13178509 -60.78442383 50.56762695 C-58.39187449 52.66939737 -56.16872284 54.89141137 -53.95239258 57.17700195 C-48.75469033 55.57404645 -43.97797868 53.35463256 -39.1340332 50.91918945 C-32.97803161 47.94237426 -26.50438749 46.08677905 -19.95239258 44.17700195 C-19.93837402 42.78578125 -19.93837402 42.78578125 -19.92407227 41.36645508 C-19.87979412 37.89192315 -19.81806544 34.41857789 -19.74487305 30.94458008 C-19.71682318 29.44729748 -19.69552984 27.9498712 -19.68139648 26.45239258 C-19.52665463 10.97820738 -19.52665463 10.97820738 -14.95239258 4.17700195 C-10.55097828 -0.08686814 -5.91001288 0.04657793 0 0 Z M4.04760742 23.17700195 C4.03358887 24.53063843 4.03358887 24.53063843 4.01928711 25.91162109 C3.97504902 29.28737774 3.91333878 32.66190481 3.84008789 36.03710938 C3.81201157 37.49272156 3.7907311 38.94848242 3.77661133 40.40429688 C3.61965783 55.67587178 3.61965783 55.67587178 -0.95239258 61.17700195 C-2.78442383 62.55981445 -2.78442383 62.55981445 -4.76489258 63.30200195 C-5.55250977 63.60750977 -6.34012695 63.91301758 -7.15161133 64.2277832 C-11.08782005 65.5618121 -15.04300146 66.83651303 -19.00024414 68.10668945 C-28.38853192 71.20018418 -37.13550033 75.74842594 -45.95239258 80.17700195 C-45.95239258 80.83700195 -45.95239258 81.49700195 -45.95239258 82.17700195 C-57.93805436 83.23753102 -57.93805436 83.23753102 -62.31176758 80.93481445 C-64.33548719 79.12015679 -66.12872968 77.19224156 -67.95239258 75.17700195 C-69.66811561 73.6203877 -71.39788117 72.07913971 -73.13989258 70.55200195 C-75.83402554 68.14254766 -78.40640993 65.73370581 -80.82739258 63.05200195 C-81.52864258 62.43325195 -82.22989258 61.81450195 -82.95239258 61.17700195 C-86.31057301 61.51809133 -87.99844024 62.84487027 -90.34399414 65.18041992 C-90.98435608 65.81132538 -91.62471802 66.44223083 -92.28448486 67.09225464 C-93.30345856 68.12033737 -93.30345856 68.12033737 -94.34301758 69.16918945 C-95.39993805 70.22180466 -95.39993805 70.22180466 -96.47821045 71.29568481 C-97.96450798 72.77994192 -99.44702788 74.2679901 -100.92602539 75.75952148 C-103.1971917 78.04676426 -105.48392433 80.31755718 -107.77270508 82.5871582 C-109.21377237 84.03020746 -110.65390902 85.47418681 -112.09301758 86.91918945 C-112.7804303 87.60052948 -113.46784302 88.28186951 -114.17608643 88.9838562 C-114.80383972 89.62106598 -115.43159302 90.25827576 -116.07836914 90.91479492 C-116.91298676 91.75299271 -116.91298676 91.75299271 -117.76446533 92.60812378 C-119.25422184 94.24764353 -119.25422184 94.24764353 -118.95239258 97.17700195 C-116.79492679 99.59699738 -116.79492679 99.59699738 -113.95239258 102.17700195 C-112.87365814 103.22579003 -111.79826434 104.27802252 -110.72583008 105.33325195 C-110.16895508 105.88110352 -109.61208008 106.42895508 -109.03833008 106.9934082 C-108.4737207 107.54899414 -107.90911133 108.10458008 -107.32739258 108.67700195 C-106.75504883 109.23258789 -106.18270508 109.78817383 -105.59301758 110.3605957 C-101.10722194 114.79423093 -97.85880383 118.20002407 -97.41333008 124.7434082 C-97.62474432 131.31547501 -100.5496203 136.40857235 -103.57739258 142.11450195 C-107.92350864 150.67312488 -111.58091477 159.00091665 -114.16381836 168.25097656 C-116.76804205 177.55072452 -116.76804205 177.55072452 -121.08813477 180.76708984 C-124.656376 182.52353317 -127.47337742 182.7019932 -131.44067383 182.9074707 C-132.72756104 182.98118896 -134.01444824 183.05490723 -135.34033203 183.13085938 C-136.96543701 183.20796143 -138.59054199 183.28506348 -140.26489258 183.36450195 C-148.03020508 183.76668945 -148.03020508 183.76668945 -155.95239258 184.17700195 C-155.95239258 200.34700195 -155.95239258 216.51700195 -155.95239258 233.17700195 C-145.69244409 233.63578846 -145.69244409 233.63578846 -135.43041992 234.04296875 C-134.14603027 234.11169189 -132.86164063 234.18041504 -131.53833008 234.2512207 C-130.22912598 234.30882568 -128.91992188 234.36643066 -127.57104492 234.42578125 C-122.98894665 235.37701026 -121.34898532 237.04786978 -117.95239258 240.17700195 C-117.29239258 240.17700195 -116.63239258 240.17700195 -115.95239258 240.17700195 C-115.6662207 241.34231445 -115.38004883 242.50762695 -115.08520508 243.70825195 C-111.49400305 258.02274551 -106.30098422 270.38552984 -99.24536133 283.30200195 C-97.14970785 287.96182359 -97.10087751 292.1752454 -97.95239258 297.17700195 C-100.85369382 303.40057755 -106.77236319 308.11020852 -111.60473633 312.83325195 C-114.26177213 315.48586673 -116.62819585 318.23301943 -118.95239258 321.17700195 C-117.42020573 324.80761863 -115.23407817 327.16337925 -112.45239258 329.92700195 C-111.65833008 330.7262207 -110.86426758 331.52543945 -110.04614258 332.34887695 C-108.16455796 334.39623805 -108.16455796 334.39623805 -105.95239258 334.17700195 C-105.74614258 334.7080957 -105.53989258 335.23918945 -105.32739258 335.78637695 C-103.37278066 339.18473631 -100.73115541 341.68756124 -97.95239258 344.42700195 C-97.40583008 344.98129883 -96.85926758 345.5355957 -96.29614258 346.10668945 C-93.6263849 349.1691597 -93.6263849 349.1691597 -89.95239258 350.17700195 C-89.70489258 350.77512695 -89.45739258 351.37325195 -89.20239258 351.98950195 C-87.78392351 354.47182282 -86.2597452 355.54028231 -83.95239258 357.17700195 C-83.0577832 356.25918945 -82.16317383 355.34137695 -81.24145508 354.39575195 C-62.02780832 334.81404811 -62.02780832 334.81404811 -54.88989258 334.36450195 C-49.44562139 334.81819122 -45.48381402 337.32220645 -40.95239258 340.17700195 C-39.29422474 340.86453496 -37.62779922 341.53261478 -35.95239258 342.17700195 C-34.83348633 342.77512695 -33.71458008 343.37325195 -32.56176758 343.98950195 C-26.2032916 347.19508622 -19.3302285 349.03951547 -12.5324707 351.08911133 C-2.59232199 354.2408658 -2.59232199 354.2408658 1.04760742 359.17700195 C3.04909118 363.24440355 3.34657211 366.71978538 3.46166992 371.2277832 C3.51508545 373.03629761 3.51508545 373.03629761 3.56958008 374.88134766 C3.6035791 376.40203857 3.63757813 377.92272949 3.67260742 379.48950195 C3.79635742 384.33637695 3.92010742 389.18325195 4.04760742 394.17700195 C20.54760742 394.17700195 37.04760742 394.17700195 54.04760742 394.17700195 C54.217833 383.91629009 54.217833 383.91629009 54.34545898 373.6550293 C54.39138184 371.72844482 54.39138184 371.72844482 54.43823242 369.76293945 C54.45917969 368.45373535 54.48012695 367.14453125 54.50170898 365.7956543 C55.23923807 360.90672044 57.32522629 357.83242226 60.85620117 354.4387207 C63.8278431 352.72777535 66.81016707 351.91939359 70.11010742 350.98950195 C76.58264324 349.07372805 82.82152043 346.78382711 89.04760742 344.17700195 C89.82370361 343.85707275 90.5997998 343.53714355 91.39941406 343.20751953 C95.26341434 341.56207209 98.7855534 339.77378609 102.30151367 337.4699707 C106.95589019 334.46956218 110.61526133 334.01595451 116.04760742 335.17700195 C122.7859015 338.13724397 127.6986946 343.63623794 132.75463867 348.82543945 C137.21129519 353.95891019 137.21129519 353.95891019 143.17260742 356.23950195 C145.59287638 354.86801621 147.25103972 353.29438532 149.04760742 351.17700195 C149.04760742 350.51700195 149.04760742 349.85700195 149.04760742 349.17700195 C150.36760742 348.51700195 151.68760742 347.85700195 153.04760742 347.17700195 C153.04760742 346.51700195 153.04760742 345.85700195 153.04760742 345.17700195 C154.36760742 344.51700195 155.68760742 343.85700195 157.04760742 343.17700195 C157.04760742 342.51700195 157.04760742 341.85700195 157.04760742 341.17700195 C158.03760742 340.84700195 159.02760742 340.51700195 160.04760742 340.17700195 C162.64569694 337.77876547 164.92540237 335.33253566 167.11010742 332.55200195 C168.93644833 330.31326148 170.75754433 328.89454927 173.04760742 327.17700195 C173.04760742 326.51700195 173.04760742 325.85700195 173.04760742 325.17700195 C173.70760742 325.17700195 174.36760742 325.17700195 175.04760742 325.17700195 C175.04760742 324.51700195 175.04760742 323.85700195 175.04760742 323.17700195 C175.70760742 323.17700195 176.36760742 323.17700195 177.04760742 323.17700195 C175.63022253 319.92493104 173.92234331 317.86339128 171.36010742 315.42700195 C167.90981873 312.07064127 164.71799568 308.58412159 161.58666992 304.9309082 C159.96184967 303.03304397 159.96184967 303.03304397 157.67260742 300.86450195 C154.74041659 297.81953455 154.73105591 294.40891709 154.78881836 290.32641602 C155.23207602 286.64486844 156.88602287 283.75330096 158.67260742 280.55200195 C159.41275864 279.15132981 160.14968685 277.74895027 160.88354492 276.3449707 C161.25060547 275.64807129 161.61766602 274.95117188 161.99584961 274.2331543 C166.97106944 264.50676122 171.52216523 253.90471952 173.98510742 243.23950195 C175.48246951 238.92357593 178.05639296 237.17260918 182.04760742 235.17700195 C184.45297005 235.0209373 186.83484364 234.9188809 189.24291992 234.8605957 C190.5372998 234.82248779 191.83167969 234.78437988 193.1652832 234.74511719 C194.8177002 234.70201416 196.47011719 234.65891113 198.17260742 234.61450195 C206.03073242 234.39793945 206.03073242 234.39793945 214.04760742 234.17700195 C214.04760742 217.67700195 214.04760742 201.17700195 214.04760742 184.17700195 C202.49760742 183.51700195 190.94760742 182.85700195 179.04760742 182.17700195 C179.04760742 181.51700195 179.04760742 180.85700195 179.04760742 180.17700195 C178.26514648 180.00168945 177.48268555 179.82637695 176.67651367 179.64575195 C174.04760742 178.17700195 174.04760742 178.17700195 172.82495117 174.83325195 C172.52650937 173.45170113 172.24756949 172.06583738 171.98510742 170.67700195 C171.66057225 169.20716329 171.33115155 167.73839473 170.99682617 166.27075195 C170.75778564 165.2053418 170.75778564 165.2053418 170.51391602 164.1184082 C168.46033842 155.56864431 163.91044343 147.70124489 159.94995117 139.91137695 C159.62961914 139.2790918 159.30928711 138.64680664 158.97924805 137.99536133 C158.11173523 136.30216546 157.2192959 134.6218048 156.32495117 132.94262695 C155.15710833 130.41408649 154.63839138 128.91428546 154.67260742 126.17700195 C154.66487305 125.55825195 154.65713867 124.93950195 154.64916992 124.30200195 C155.94446555 117.39375862 160.79274647 112.90182468 165.48510742 108.05200195 C166.15348633 107.34946289 166.82186523 106.64692383 167.51049805 105.9230957 C170.64839328 102.63281507 173.81180241 99.37142838 177.04760742 96.17700195 C175.73263087 92.62656527 173.61218107 90.9014836 170.68823242 88.5949707 C168.93398751 87.07880189 167.52149665 85.46506231 166.04760742 83.67700195 C164.125159 81.35404344 162.39972222 79.63709762 160.04760742 77.67700195 C157.14624492 75.25919987 154.89481576 72.7643877 152.48510742 69.8840332 C148.96036233 65.69839841 146.18391724 63.06572819 141.04760742 61.17700195 C140.21358398 61.95043945 139.37956055 62.72387695 138.52026367 63.52075195 C135.03670115 66.74748346 131.54372757 69.96388662 128.04760742 73.17700195 C127.13624023 74.01618164 126.22487305 74.85536133 125.28588867 75.7199707 C124.50600586 76.42766602 123.72612305 77.13536133 122.92260742 77.86450195 C122.2394043 78.48711914 121.55620117 79.10973633 120.85229492 79.7512207 C117.37632973 82.49738368 113.47984458 82.80673803 109.18823242 82.79418945 C104.22848513 81.81951275 100.3159338 79.24987961 96.01928711 76.6730957 C90.54801978 73.3929222 85.14763121 71.07413854 79.04760742 69.17700195 C77.50538618 68.65781305 75.96369709 68.1370401 74.42260742 67.61450195 C72.17897913 66.85858418 69.95160754 66.15119215 67.66479492 65.53637695 C61.95637063 63.91616412 59.31926506 62.18672771 56.04760742 57.17700195 C54.84298583 53.66142423 54.86055069 50.17061033 54.76635742 46.4777832 C54.7102832 44.54128906 54.7102832 44.54128906 54.65307617 42.56567383 C54.59927697 40.51809602 54.54712658 38.47048173 54.49536133 36.42285156 C54.44377549 34.44105632 54.38641105 32.45941411 54.32885742 30.4777832 C54.29856445 29.2935376 54.26827148 28.10929199 54.23706055 26.88916016 C54.35159265 24.26228243 54.35159265 24.26228243 53.04760742 23.17700195 C51.51277772 23.08380746 49.9736866 23.05954395 48.43603516 23.06347656 C47.45509384 23.06355209 46.47415253 23.06362762 45.46348572 23.06370544 C44.39683182 23.06886673 43.33017792 23.07402802 42.23120117 23.0793457 C41.14500992 23.08076065 40.05881866 23.0821756 38.93971252 23.08363342 C35.45481667 23.08925147 31.969984 23.10180703 28.48510742 23.11450195 C26.12898856 23.11951463 23.77286869 23.12407794 21.41674805 23.12817383 C15.62701278 23.13922676 9.83731461 23.15598244 4.04760742 23.17700195 Z " fill="#040404" transform="translate(275.952392578125,199.822998046875)"/>

    <path d="M0 0 C0.67355026 -0.00832352 1.34710052 -0.01664703 2.0410614 -0.02522278 C4.26856261 -0.04932424 6.49577088 -0.05809561 8.72338867 -0.06469727 C10.27414538 -0.07366475 11.8249012 -0.08278661 13.37565613 -0.09205627 C16.62806296 -0.10855007 19.88036683 -0.11624686 23.1328125 -0.11914062 C27.29259286 -0.12451961 31.45139986 -0.1621765 35.61090565 -0.20788479 C38.81519567 -0.23768899 42.01925249 -0.24486492 45.22366905 -0.24586678 C46.75664406 -0.25006382 48.28962009 -0.26247758 49.82245827 -0.28338432 C51.97220081 -0.31036668 54.11970354 -0.3054556 56.26953125 -0.29296875 C57.49070145 -0.2980394 58.71187164 -0.30311005 59.970047 -0.30833435 C64.48619479 0.51821284 66.11707258 2.05938818 69.32885742 5.30639648 C70.53503733 8.9249362 70.47369383 12.23180027 70.46929932 15.99850464 C70.47227044 16.78974924 70.47524156 17.58099385 70.47830272 18.39621556 C70.48699703 21.0562279 70.48849858 23.71619527 70.48999023 26.3762207 C70.49461784 28.27985735 70.49964243 30.18349306 70.5050354 32.08712769 C70.51816582 37.26480623 70.52460547 42.4424718 70.52904606 47.62016439 C70.53197539 50.85332636 70.53607991 54.08648476 70.54055023 57.31964493 C70.55422607 67.43079038 70.56389264 77.54192771 70.56775212 87.65308177 C70.572235 99.3338774 70.58979322 111.01455612 70.61875272 122.6953162 C70.64034936 131.71873715 70.6504553 140.74212518 70.65179324 149.76557171 C70.6528426 155.15757114 70.65877837 160.54946069 70.67661285 165.94143295 C70.69305892 171.01229995 70.69526591 176.08297407 70.68647385 181.15385818 C70.68570165 183.01588201 70.6900702 184.87791607 70.6999321 186.73991394 C70.71259882 189.2802809 70.70680378 191.81995927 70.6963501 194.36032104 C70.7044065 195.09855445 70.71246291 195.83678785 70.72076344 196.59739196 C70.67821042 201.01347982 70.02480929 203.78534529 67.32885742 207.30639648 C63.5074398 210.3044967 60.5907152 210.68457423 55.79785156 210.69458008 C53.84541283 210.7087648 53.84541283 210.7087648 51.85353088 210.72323608 C50.44035537 210.7178655 49.02718265 210.71171233 47.61401367 210.70483398 C46.15579584 210.70685661 44.697579 210.70976962 43.23936462 210.71353149 C40.18714746 210.71794742 37.13519422 210.7115486 34.08300781 210.69750977 C30.18131736 210.6804332 26.28024677 210.6902535 22.37857914 210.70822716 C19.36815267 210.71909797 16.35787171 210.71560337 13.34744072 210.70784378 C11.90940718 210.70585008 10.4713602 210.70827177 9.03334236 210.71528244 C7.01865028 210.72294872 5.00391157 210.70918144 2.98925781 210.69458008 C1.8451796 210.6921933 0.70110138 210.68980652 -0.47764587 210.68734741 C-5.2614942 210.11668408 -8.38967713 208.57056059 -11.81650448 205.18999958 C-14.16042801 201.54565239 -14.22991039 198.57452972 -14.17907715 194.38050842 C-14.18843709 193.19213659 -14.18843709 193.19213659 -14.19798613 191.97975725 C-14.21392683 189.32799797 -14.20130794 186.67715654 -14.1887207 184.02539062 C-14.19414139 182.12307703 -14.20126376 180.22076763 -14.20996094 178.31846619 C-14.22820471 173.15313029 -14.22112202 167.98811378 -14.2084446 162.82277226 C-14.19832096 157.41768228 -14.20770865 152.01261974 -14.21398926 146.60752869 C-14.22126813 137.52931812 -14.21167228 128.45123769 -14.19262695 119.37304688 C-14.17086435 108.87846792 -14.17790424 98.38419987 -14.19993258 87.88962847 C-14.21808752 78.87971494 -14.22064422 69.86989499 -14.2101779 60.85996908 C-14.20394267 55.47858074 -14.20310809 50.0973385 -14.21632385 44.71595955 C-14.2278828 39.65564367 -14.21985561 34.59572834 -14.19674683 29.5354557 C-14.19145972 27.6786999 -14.19297354 25.82191036 -14.20179749 23.965168 C-14.2127368 21.42941372 -14.19900956 18.89494093 -14.17907715 16.35926819 C-14.18800004 15.62531187 -14.19692292 14.89135554 -14.2061162 14.13515812 C-14.12900898 9.07419961 -12.86851454 6.19484359 -9.67114258 2.30639648 C-6.04522417 -0.11088245 -4.31883069 0.03770276 0 0 Z " fill="#060606" transform="translate(795.671142578125,569.693603515625)"/>
    <path d="M0 0 C1.17304688 0.33515625 2.34609375 0.6703125 3.5546875 1.015625 C31.22085312 9.7087344 54.31586112 27.5537645 70.75146484 51.21044922 C71.81408496 52.7335242 72.91314623 54.23106948 74.01953125 55.72265625 C90.9578885 79.84930054 95.91643368 114.9949031 91.01953125 143.50390625 C89.9116566 149.06776048 88.5104237 154.5337603 87 160 C86.72414063 161.11761719 86.44828125 162.23523438 86.1640625 163.38671875 C78.46791755 190.70422334 56.00108032 216.62851614 32.125 231.2734375 C1.16908889 248.37657839 -33.80668395 255.68698686 -68.53515625 246.31591797 C-85.4743433 241.30204791 -102.28829235 233.27936995 -116 222 C-116 221.34 -116 220.68 -116 220 C-116.556875 219.76539063 -117.11375 219.53078125 -117.6875 219.2890625 C-136.64862552 208.71951618 -151.29568898 180.91124482 -157.15234375 160.93701172 C-157.79020829 158.62991196 -158.397754 156.31660863 -159 154 C-159.33902344 152.80246094 -159.67804688 151.60492188 -160.02734375 150.37109375 C-164.73269031 130.61731164 -163.92913574 106.37565558 -158 87 C-157.63777344 85.78183594 -157.27554688 84.56367188 -156.90234375 83.30859375 C-152.62623635 70.33531876 -146.40459415 57.78798652 -138 47 C-137.32324219 46.12085938 -136.64648438 45.24171875 -135.94921875 44.3359375 C-118.93117372 22.87445975 -97.24909553 7.8481044 -71 0 C-70.34999023 -0.21027832 -69.69998047 -0.42055664 -69.03027344 -0.63720703 C-47.83838179 -7.35879396 -21.15678127 -6.09298434 0 0 Z M-109 49 C-109.61488281 49.55042969 -110.22976562 50.10085938 -110.86328125 50.66796875 C-127.11668322 65.80044645 -138.05998798 90.45784154 -139.12280273 112.55297852 C-139.47413849 125.03340704 -139.41013972 136.91325477 -136 149 C-135.48953125 150.83884766 -135.48953125 150.83884766 -134.96875 152.71484375 C-126.80060781 179.45447138 -108.4969241 201.82709286 -83.8125 215 C-68.59401961 223.07841772 -53.57307075 226.592177 -36.3125 226.4375 C-35.26375198 226.43393494 -35.26375198 226.43393494 -34.19381714 226.43029785 C-19.68891289 226.35325757 -6.02631098 224.84839144 7 218 C7.928125 217.56945312 8.85625 217.13890625 9.8125 216.6953125 C33.88061065 205.33663783 53.23430016 184.37278147 62.6784668 159.46044922 C63.89950473 156.00509645 64.97963607 152.51925007 66 149 C66.33902344 147.86433594 66.67804688 146.72867188 67.02734375 145.55859375 C73.47531447 120.39070804 67.96804456 91.55577896 55.06640625 69.296875 C52.06756473 64.5123339 48.7386123 60.22350751 45 56 C44.23171875 55.11183594 43.4634375 54.22367187 42.671875 53.30859375 C29.63107387 38.47576201 12.77832404 27.8948137 -6 22 C-6.99902344 21.67644531 -7.99804688 21.35289062 -9.02734375 21.01953125 C-17.34643545 18.78502112 -25.55108348 18.72161669 -34.125 18.6875 C-35.30465332 18.68194092 -36.48430664 18.67638184 -37.69970703 18.6706543 C-65.95914192 18.90157718 -88.62240199 29.81489481 -109 49 Z " fill="#050505" transform="translate(340,286)"/>
    <path d="M0 0 C13.91926712 10.91328861 24.4688275 25.65974384 27.1328125 43.49609375 C28.89520777 63.87002542 26.01280924 82.14355822 13.3203125 98.62109375 C11.94053141 100.25974559 10.54475186 101.88506832 9.1328125 103.49609375 C8.48957031 104.25792969 7.84632813 105.01976562 7.18359375 105.8046875 C-3.90605277 117.9927371 -21.1374275 125.94963641 -37.53125 126.93359375 C-48.16690516 127.28568736 -58.01623536 126.87860395 -67.8671875 122.49609375 C-69.03507812 121.98691406 -70.20296875 121.47773438 -71.40625 120.953125 C-89.3596725 112.73877989 -102.70793721 98.62761144 -110.04296875 80.2734375 C-114.72772123 64.48737581 -115.7726341 44.72238904 -108.8671875 29.49609375 C-108.43148437 28.47773438 -107.99578125 27.459375 -107.546875 26.41015625 C-99.80772044 9.6208428 -85.52824241 -3.59845298 -68.421875 -10.66015625 C-45.04133799 -18.38216847 -19.8024981 -14.86388237 0 0 Z " fill="#050505" transform="translate(347.8671875,352.50390625)"/>
    <path d="M0 0 C0.66350464 -0.0065712 1.32700928 -0.0131424 2.01062012 -0.01991272 C4.21647241 -0.03969486 6.42225632 -0.05132181 8.62817383 -0.0612793 C9.38101465 -0.06535482 10.13385548 -0.06943035 10.90950966 -0.07362938 C14.89751539 -0.09451547 18.8854865 -0.10880363 22.87353516 -0.11816406 C26.98836216 -0.12920745 31.10264521 -0.1635754 35.21728039 -0.20333576 C38.38380415 -0.22952521 41.55019913 -0.23785814 44.71682167 -0.24144554 C46.23304207 -0.246309 47.74925681 -0.25791628 49.26537132 -0.27648354 C51.39349242 -0.3009163 53.52021815 -0.29990298 55.6484375 -0.29296875 C57.46259407 -0.30176811 57.46259407 -0.30176811 59.31340027 -0.31074524 C64.18313715 0.4016073 67.22196341 2.75126028 70.64770508 6.17700195 C70.90218067 8.92352772 70.90218067 8.92352772 70.90840149 12.49604797 C70.91413981 13.4794974 70.91413981 13.4794974 70.91999406 14.48281449 C70.93035106 16.6899581 70.92632686 18.89684287 70.92236328 21.10400391 C70.92670837 22.68237551 70.93189083 24.260745 70.93785095 25.83911133 C70.95127652 30.13466981 70.95181552 34.43014049 70.94928765 38.72571588 C70.94822 42.30919551 70.95309621 45.89265724 70.95789307 49.47613305 C70.9690013 57.93071683 70.96941878 66.38525619 70.96337891 74.83984375 C70.95734162 83.56490084 70.96964085 92.28979657 70.99094898 101.01482612 C71.00856032 108.50109267 71.01456694 115.98730786 71.01131123 123.47359437 C71.00949693 127.94675369 71.0121488 132.41979801 71.02602577 136.89293861 C71.03859134 141.10118349 71.03667213 145.30917695 71.02361488 149.51741791 C71.02124649 151.06176271 71.02399322 152.60612514 71.03223801 154.15044975 C71.04268576 156.25959385 71.03462158 158.36789137 71.02192688 160.477005 C71.02209462 161.65706777 71.02226236 162.83713053 71.02243519 164.05295277 C70.60820383 167.50631584 69.75963686 169.43260393 67.64770508 172.17700195 C66.98770508 172.17700195 66.32770508 172.17700195 65.64770508 172.17700195 C65.31770508 173.16700195 64.98770508 174.15700195 64.64770508 175.17700195 C55.60726139 175.26974333 46.56698183 175.34078763 37.52616596 175.38425064 C33.3279825 175.40511237 29.13012486 175.43340363 24.93212891 175.47875977 C20.87966402 175.5222688 16.82751223 175.54614971 12.77483177 175.55651093 C11.22986104 175.56389329 9.68490716 175.57830959 8.14006996 175.59992218 C5.97337647 175.62902503 3.80797125 175.63295533 1.64111328 175.63110352 C0.40867386 175.63998596 -0.82376556 175.64886841 -2.09355164 175.65802002 C-6.01035057 175.07986738 -7.59568537 173.97607944 -10.35229492 171.17700195 C-12.61031918 167.69020633 -12.61024723 164.71841802 -12.62644958 160.6174469 C-12.63168626 159.9601051 -12.63692294 159.3027633 -12.64231831 158.62550205 C-12.65731078 156.42458941 -12.65802327 154.2239094 -12.65869141 152.02294922 C-12.6663133 150.44428109 -12.67474085 148.86561667 -12.68391418 147.28695679 C-12.70586045 142.99979741 -12.714658 138.71270936 -12.71974063 134.42550015 C-12.7233834 131.74728565 -12.72962298 129.06908986 -12.73674202 126.39088249 C-12.76123489 117.04834039 -12.77428851 107.70585382 -12.77783203 98.36328125 C-12.7814694 89.65286119 -12.81137946 80.94279304 -12.85323662 72.23248059 C-12.8879122 64.75466437 -12.90337998 57.27696496 -12.90407807 49.79906887 C-12.90487168 45.33254362 -12.91364907 40.86637699 -12.94207573 36.39993477 C-12.96821052 32.19975188 -12.9704877 28.00022617 -12.95442009 23.79999924 C-12.95260203 22.25886416 -12.95932857 20.71769167 -12.9752388 19.17663765 C-12.99564742 17.0714917 -12.98518311 14.96865668 -12.96702576 12.86354065 C-12.96903708 11.68607553 -12.97104841 10.5086104 -12.97312069 9.29546452 C-12.17155677 5.26913827 -10.4297753 3.7917921 -7.35229492 1.17700195 C-5.50290352 -0.67238945 -2.4757283 0.02021767 0 0 Z " fill="#040404" transform="translate(585.352294921875,604.822998046875)"/>
    <path d="M0 0 C0.68491013 -0.00671722 1.36982025 -0.01343445 2.07548523 -0.02035522 C4.34027355 -0.03935685 6.60476583 -0.04326054 8.86962891 -0.04541016 C10.44520184 -0.05183693 12.02077358 -0.0585652 13.59634399 -0.06558228 C16.90003221 -0.07756067 20.20361582 -0.08126256 23.50732422 -0.08007812 C27.73656654 -0.07987498 31.96513656 -0.10716964 36.19421959 -0.14162254 C39.44907703 -0.16388332 42.70377251 -0.16791592 45.95869827 -0.16685867 C47.51759787 -0.16921616 49.07650182 -0.17804813 50.63532639 -0.19352341 C52.81855786 -0.21316672 55.00033786 -0.20735342 57.18359375 -0.1953125 C58.42474945 -0.19816254 59.66590515 -0.20101257 60.94467163 -0.20394897 C64.81919845 0.38077564 66.46005816 1.56583605 69.22119141 4.29052734 C70.50548757 6.85911968 70.35870719 8.7006392 70.37509155 11.57781982 C70.38369202 12.69939484 70.39229248 13.82096985 70.40115356 14.97653198 C70.40541351 16.21291412 70.40967346 17.44929626 70.4140625 18.72314453 C70.42632874 20.66959366 70.42632874 20.66959366 70.43884277 22.65536499 C70.46506919 26.96602296 70.4803722 31.27669066 70.49462891 35.58740234 C70.49998856 37.0712815 70.50536607 38.55516059 70.51076126 40.03903961 C70.53239197 46.21208733 70.5511282 52.38513243 70.56238365 58.55820847 C70.57861935 67.40460756 70.61178513 76.25056716 70.6687845 85.09680057 C70.70749532 91.31684079 70.72701773 97.53676353 70.73230422 103.75692105 C70.73595653 107.47182169 70.74796368 111.18625367 70.78040695 114.90102386 C70.81610277 119.04772531 70.81211391 123.19348359 70.8046875 127.34033203 C70.82109283 128.56861725 70.83749817 129.79690247 70.85440063 131.06240845 C70.78627043 140.34073566 70.78627043 140.34073566 67.9347229 143.97491455 C63.33716072 147.89827929 60.76801747 148.54136431 54.69604492 148.58105469 C54.05000305 148.58777191 53.40396118 148.59448914 52.73834229 148.60140991 C50.60884857 148.62036303 48.47967039 148.62431248 46.35009766 148.62646484 C44.86563488 148.632894 43.38117338 148.63962245 41.89671326 148.64663696 C38.78731346 148.6586025 35.67802471 148.66231847 32.56860352 148.66113281 C28.58935667 148.66092951 24.61082311 148.68824565 20.63174534 148.72267723 C17.56646978 148.74494132 14.50136613 148.74897054 11.43601799 148.74791336 C9.96922278 148.75026953 8.50242285 148.75909408 7.03570747 148.77457809 C4.98187739 148.7942326 2.9295887 148.78840474 0.87573242 148.77636719 C-0.2913475 148.77921722 -1.45842743 148.78206726 -2.66087341 148.78500366 C-6.53062148 148.17129662 -8.06431 147.0923116 -10.77880859 144.29052734 C-14.84866151 138.67155976 -14.20814072 132.42320997 -14.18286133 125.77099609 C-14.18972458 124.51179352 -14.19658783 123.25259094 -14.20365906 121.95523071 C-14.22155614 118.51306988 -14.2204289 115.07116443 -14.21471667 111.6289711 C-14.21162031 108.75120691 -14.21772211 105.87349146 -14.22375542 102.99573421 C-14.23778719 96.20561076 -14.23625016 89.41561317 -14.22485352 82.62548828 C-14.21336856 75.62825532 -14.22745706 68.63140548 -14.25424999 61.63422298 C-14.2764217 55.61789475 -14.28304123 49.60168665 -14.27717358 43.58532047 C-14.27380688 39.99578229 -14.27619987 36.40648978 -14.29342461 32.81698608 C-14.31179458 28.81443077 -14.29769176 24.81261918 -14.28051758 20.81005859 C-14.29018555 19.62546051 -14.29985352 18.44086243 -14.30981445 17.22036743 C-14.25355964 10.96562691 -14.09775245 6.98281892 -9.77880859 2.29052734 C-6.12628428 -0.14448886 -4.35435565 0.02678025 0 0 Z " fill="#060606" transform="translate(690.77880859375,631.70947265625)"/>
    <path d="M0 0 C3.64207936 1.61870194 6.16648143 3.42946383 8 7 C8.54361609 11.81488535 8.65296264 15.38102413 5.5703125 19.390625 C2.65300527 22.38050206 -0.61384456 24.93080775 -3.8828125 27.5234375 C-7.07867105 30.06250307 -10.20307734 32.66920738 -13.3125 35.3125 C-13.84810547 35.76665283 -14.38371094 36.22080566 -14.93554688 36.6887207 C-19.69069256 40.72567057 -24.4266166 44.7851354 -29.15551758 48.8527832 C-30.23862899 49.78360957 -31.32329206 50.71263417 -32.40966797 51.63964844 C-33.50241892 52.57437491 -34.58971449 53.51550516 -35.67236328 54.46191406 C-39.77858178 58 -39.77858178 58 -42 58 C-42.33 58.99 -42.66 59.98 -43 61 C-44.390625 62.21875 -44.390625 62.21875 -46.25 63.5 C-50.9424742 66.86151788 -55.26921841 70.59108314 -59.60644531 74.39257812 C-63.78516706 78 -63.78516706 78 -66 78 C-66.33 78.99 -66.66 79.98 -67 81 C-68.57421875 82.40234375 -68.57421875 82.40234375 -70.6875 83.9375 C-74.8446427 87.06688635 -78.81441259 90.35068924 -82.75 93.75 C-83.3476416 94.26473877 -83.9452832 94.77947754 -84.56103516 95.30981445 C-85.77851981 96.35879194 -86.99564213 97.4081901 -88.21240234 98.45800781 C-95.41733338 104.67302344 -102.64845704 110.81603977 -110.1875 116.625 C-110.74058838 117.05119629 -111.29367676 117.47739258 -111.86352539 117.91650391 C-116.57444717 121.5079621 -118.95707108 122.522532 -125 122 C-127.68952212 120.86577685 -130.02432089 119.31887685 -132.4375 117.6875 C-133.12779297 117.23890625 -133.81808594 116.7903125 -134.52929688 116.328125 C-140.08518505 112.69136048 -145.54353952 108.90576423 -150.9934082 105.11254883 C-157.5413025 100.57213159 -164.2916718 96.38699729 -171.06835938 92.19970703 C-178.07465793 87.8482218 -185.05046251 83.43814895 -191.75 78.625 C-197.21430521 74.72323023 -202.97788486 71.31748042 -208.75683594 67.90673828 C-212.66956316 65.5660137 -215.83294208 63.31823014 -219 60 C-221.86759592 58.99826464 -221.86759592 58.99826464 -225 60 C-226.84959125 61.72773582 -228.3673902 63.55249018 -229.8984375 65.56640625 C-231.73834625 67.69700691 -233.55146203 69.39189119 -235.68367004 71.21250916 C-239.66979601 74.67259025 -243.43783313 78.29604872 -247.1628418 82.03344727 C-247.82897491 82.69782806 -248.49510803 83.36220886 -249.181427 84.04672241 C-251.35652582 86.21746253 -253.52799639 88.39178935 -255.69921875 90.56640625 C-257.2226579 92.0891708 -258.74624538 93.61178695 -260.26997375 95.13426208 C-263.45122222 98.31404182 -266.6306691 101.49560903 -269.80883789 104.6784668 C-273.87391291 108.74924833 -277.94347439 112.81551049 -282.0143919 116.88044834 C-285.15694812 120.01938496 -288.29711123 123.16070692 -291.43656349 126.30274773 C-292.93608102 127.80293015 -294.43633569 129.30237614 -295.93735313 130.80105782 C-298.03578424 132.89693834 -300.13096457 134.99601678 -302.2253418 137.09594727 C-302.83999802 137.70857925 -303.45465424 138.32121124 -304.0879364 138.95240784 C-307.60683276 142.48853438 -310.84306838 146.13770708 -314 150 C-317.32080579 153.20886852 -320.43391002 155.30696 -325.125 155.625 C-329.77300481 154.87532181 -331.1221508 153.63963282 -334 150 C-336.35171988 146.47242018 -336.59931197 144.55398922 -336.51171875 140.41015625 C-335.07017189 133.62058056 -328.03954037 129.18174626 -323 125 C-321.45621504 123.26273807 -319.98166184 121.47784139 -318.5 119.6875 C-316.25654676 117.16361511 -313.59104563 115.15920469 -311 113 C-310.00015021 111.87216944 -309.021629 110.72515771 -308.0625 109.5625 C-305.51266824 106.47867206 -302.73637448 104.00850176 -299.65625 101.46875 C-297.14087478 99.23813424 -295.1436763 96.58340477 -293 94 C-292.030625 93.195625 -291.06125 92.39125 -290.0625 91.5625 C-287.68886511 89.57639734 -285.94116254 87.8466273 -284 85.5 C-281.29852543 82.23571822 -278.25777945 79.71481621 -275 77 C-273.97914468 75.85153776 -272.97968065 74.68378078 -272 73.5 C-269.29852543 70.23571822 -266.25777945 67.71481621 -263 65 C-262.02116435 63.89279246 -261.06358775 62.76652565 -260.125 61.625 C-257.31770676 58.22669766 -254.16690645 55.47116305 -250.8125 52.625 C-248.5819117 50.62516222 -246.85345456 48.3477091 -245 46 C-244.030625 45.195625 -243.06125 44.39125 -242.0625 43.5625 C-239.79165307 41.66240359 -238.18249459 40.12741634 -236.375 37.875 C-233.8078309 34.76737425 -231.79812667 32.44231993 -227.80859375 31.4609375 C-222.53334672 31.26974239 -219.25293681 32.12674684 -214.85546875 35.0859375 C-213.89680908 35.72160645 -212.93814941 36.35727539 -211.95043945 37.01220703 C-210.97679443 37.66817871 -210.00314941 38.32415039 -209 39 C-207.16571728 40.19525168 -205.32979722 41.38799467 -203.4921875 42.578125 C-201.61945331 43.80156557 -199.7470656 45.02553662 -197.875 46.25 C-190.8402823 50.84410136 -183.80338977 55.43460426 -176.75 60 C-176.12077637 60.40766602 -175.49155273 60.81533203 -174.84326172 61.23535156 C-171.22094554 63.5779159 -167.58511938 65.89788131 -163.94140625 68.20703125 C-157.62594721 72.22200633 -151.36602669 76.31993271 -145.10961914 80.42602539 C-143.17318967 81.69689178 -141.23606842 82.96669814 -139.29882812 84.23632812 C-138.0468353 85.05723112 -136.79488079 85.87819255 -135.54296875 86.69921875 C-134.68967232 87.25871468 -134.68967232 87.25871468 -133.81913757 87.82951355 C-130.20197287 90.20378056 -126.5976145 92.59627962 -123 95 C-119.55220914 93.49993609 -117.17639467 91.49590738 -114.4375 88.9375 C-109.12683534 84.07068854 -103.60412171 79.52276301 -98 75 C-89.53627455 68.14662939 -81.24793139 61.10967239 -73 54 C-65.68908134 47.69802753 -58.35752998 41.44359471 -50.86328125 35.359375 C-46.84171737 32.04556247 -42.89196375 28.650485 -38.9453125 25.24804688 C-37.83914027 24.29458288 -36.73159514 23.34270893 -35.62255859 22.39257812 C-34.516723 21.44348299 -33.41565843 20.4888072 -32.31884766 19.52929688 C-28.222431 16 -28.222431 16 -26 16 C-26 15.34 -26 14.68 -26 14 C-23.68062329 11.88974742 -21.20858515 10.02507699 -18.7265625 8.109375 C-17.06603243 6.82472423 -15.42833401 5.50882128 -13.8359375 4.140625 C-9.06521767 0.1491861 -6.22870788 -0.91898969 0 0 Z " fill="#050505" transform="translate(834,475)"/>
    <path d="M0 0 C0.67340424 -0.0065712 1.34680847 -0.0131424 2.0406189 -0.01991272 C4.27349965 -0.03965335 6.50631305 -0.05131122 8.73925781 -0.0612793 C9.50221413 -0.06535482 10.26517044 -0.06943035 11.05124664 -0.07362938 C15.09112783 -0.09449549 19.13097501 -0.10879364 23.17089844 -0.11816406 C27.33838016 -0.12921705 31.50532623 -0.16360195 35.67261887 -0.20333576 C38.88117445 -0.22951971 42.0896029 -0.23785754 45.29825592 -0.24144554 C46.83401346 -0.24630861 48.36976542 -0.25791474 49.9054184 -0.27648354 C52.0597687 -0.30090974 54.21274026 -0.29990438 56.3671875 -0.29296875 C57.5913739 -0.29883499 58.8155603 -0.30470123 60.07684326 -0.31074524 C64.15627311 0.28046174 66.31172657 1.52386359 69.44238281 4.17700195 C70.42459438 6.97587187 70.57111581 9.58495127 70.58282471 12.53465271 C70.58853485 13.39958344 70.594245 14.26451416 70.60012817 15.15565491 C70.60180496 16.56698952 70.60180496 16.56698952 70.60351562 18.00683594 C70.61096298 19.50259155 70.61096298 19.50259155 70.61856079 21.02856445 C70.63316441 24.32674855 70.63998061 27.62488459 70.64550781 30.9230957 C70.65125971 33.21468609 70.65701744 35.50627646 70.66278076 37.79786682 C70.6732849 42.60206324 70.67913176 47.40624294 70.68261719 52.21044922 C70.68810784 58.36872823 70.7121507 64.52678681 70.74058914 70.6849966 C70.75920207 75.41787871 70.76442036 80.1507075 70.76595306 84.88362312 C70.76898196 87.15423859 70.77701842 89.42485308 70.79013824 91.69543266 C70.80717411 94.86971779 70.8053246 98.04346127 70.79882812 101.21777344 C70.80804291 102.15663895 70.81725769 103.09550446 70.82675171 104.06282043 C70.79594601 108.86277207 70.70975343 112.34936046 67.44238281 116.17700195 C66.78238281 116.17700195 66.12238281 116.17700195 65.44238281 116.17700195 C65.44238281 116.83700195 65.44238281 117.49700195 65.44238281 118.17700195 C61.93875672 119.24839213 58.67782635 119.32261147 55.02490234 119.35400391 C53.07235031 119.37325676 53.07235031 119.37325676 51.08035278 119.39289856 C49.66197085 119.40106575 48.24358459 119.40850953 46.82519531 119.4152832 C45.74970743 119.42139649 45.74970743 119.42139649 44.65249252 119.42763329 C40.85898887 119.44845538 37.065521 119.46277495 33.27197266 119.47216797 C29.36236426 119.48323788 25.45332414 119.51765476 21.5439167 119.55733967 C18.52923551 119.58352612 15.51468955 119.59186144 12.49990463 119.59544945 C11.05904162 119.60030846 9.61818437 119.61190302 8.17743301 119.63048744 C6.1579798 119.65492238 4.13824832 119.65148981 2.11865234 119.64697266 C0.97155792 119.6528389 -0.1755365 119.65870514 -1.35739136 119.66474915 C-5.33280431 119.0588555 -7.46430073 117.71384777 -10.55761719 115.17700195 C-12.32783907 112.31232414 -12.80821919 110.1637713 -12.81158447 106.8193512 C-12.81722412 105.95442047 -12.82286377 105.08948975 -12.82867432 104.198349 C-12.82462585 103.25745926 -12.82057739 102.31656952 -12.81640625 101.34716797 C-12.81991089 100.34999756 -12.82341553 99.35282715 -12.82702637 98.32543945 C-12.83583306 95.02719167 -12.82999774 91.72915819 -12.82324219 88.4309082 C-12.82458925 86.13931741 -12.82653012 83.8477269 -12.82904053 81.55613708 C-12.83199044 76.75191529 -12.82769874 71.94776784 -12.81835938 67.14355469 C-12.80697141 60.98531193 -12.81352108 54.82724364 -12.8255043 48.6690073 C-12.83273191 43.93611843 -12.8304307 39.2032709 -12.82524872 34.47038078 C-12.82391439 32.19977739 -12.82555236 29.92917025 -12.83020782 27.65857124 C-12.83528704 24.48435657 -12.82754265 21.31042413 -12.81640625 18.13623047 C-12.82045471 17.19736496 -12.82450317 16.25849945 -12.82867432 15.29118347 C-12.79957592 10.81392739 -12.68687184 7.2405046 -10.55761719 3.17700195 C-9.89761719 3.17700195 -9.23761719 3.17700195 -8.55761719 3.17700195 C-8.55761719 2.51700195 -8.55761719 1.85700195 -8.55761719 1.17700195 C-5.68787382 -0.25786973 -3.20746048 0.02585979 0 0 Z " fill="#040404" transform="translate(480.5576171875,660.822998046875)"/>

    <path d="M0 0 C12.21 0 24.42 0 37 0 C37 53.79 37 107.58 37 163 C24.79 163 12.58 163 0 163 C0 109.21 0 55.42 0 0 Z " fill="#FDFDFD" transform="translate(806,593)"/>
    <path d="M0 0 C12.21 0 24.42 0 37 0 C37 42.24 37 84.48 37 128 C24.79 128 12.58 128 0 128 C0 85.76 0 43.52 0 0 Z " fill="#FDFDFD" transform="translate(596,628)"/>

    <path d="M0 0 C12.21 0 24.42 0 37 0 C37 33.33 37 66.66 37 101 C24.79 101 12.58 101 0 101 C0 67.67 0 34.34 0 0 Z " fill="#FDFDFD" transform="translate(701,655)"/>
    <path d="M0 0 C12.21 0 24.42 0 37 0 C37 23.76 37 47.52 37 72 C24.79 72 12.58 72 0 72 C0 48.24 0 24.48 0 0 Z " fill="#FDFDFD" transform="translate(491,684)"/>

    <path d="M0 0 C0.99 0.33 1.98 0.66 3 1 C1.53543147 3.92913705 -0.89996156 5.50816521 -3.40625 7.5625 C-5.11676639 8.92966207 -5.11676639 8.92966207 -6 11 C-6.66 11 -7.32 11 -8 11 C-8.185625 11.70125 -8.37125 12.4025 -8.5625 13.125 C-10.29174311 16.58348622 -12.38993453 18.18246646 -15.44140625 20.47265625 C-17.26706013 22.26170554 -17.60904765 23.50968708 -18 26 C-18.99 25.67 -19.98 25.34 -21 25 C-19.38992931 21.1043692 -16.73032233 18.32969963 -13.875 15.3125 C-12.88614716 14.25183469 -11.89787134 13.19063114 -10.91015625 12.12890625 C-10.42047363 11.60441895 -9.93079102 11.07993164 -9.42626953 10.53955078 C-6.22290266 7.08175696 -3.11637267 3.5360561 0 0 Z " fill="#232323" transform="translate(152,492)"/>

    <path d="M0 0 C0 3 0 3 -2.1875 5.3125 C-3.115625 6.199375 -4.04375 7.08625 -5 8 C-5.8860633 9.09530857 -6.76133325 10.19944619 -7.625 11.3125 C-8.800625 12.6428125 -8.800625 12.6428125 -10 14 C-13 14 -13 14 -16 12 C-14.9171875 11.938125 -14.9171875 11.938125 -13.8125 11.875 C-10.52084568 10.85092977 -9.38084135 9.32895962 -7.3359375 6.6328125 C-5.19994136 4.02215055 -2.64000591 2.08744653 0 0 Z " fill="#252525" transform="translate(431,544)"/>
    <path d="M0 0 C3.59634744 3.49359465 6.83451967 7.11098131 10 11 C9.01 11.99 8.02 12.98 7 14 C6.566875 13.05125 6.13375 12.1025 5.6875 11.125 C4.20697799 7.79958063 4.20697799 7.79958063 1 6 C0.3125 2.875 0.3125 2.875 0 0 Z " fill="#E0E0E0" transform="translate(33,819)"/>
    <path d="M0 0 C-1.01320313 0.36351562 -1.01320313 0.36351562 -2.046875 0.734375 C-8.78469251 3.19836927 -8.78469251 3.19836927 -14 8 C-14.66 6.68 -15.32 5.36 -16 4 C-13.71185277 1.71185277 -12.19248378 1.24548839 -9.125 0.3125 C-8.26132812 0.04050781 -7.39765625 -0.23148437 -6.5078125 -0.51171875 C-3.91305068 -1.01692938 -2.469215 -0.85561171 0 0 Z " fill="#212121" transform="translate(276,286)"/>
    <path d="M0 0 C0.99 0.33 1.98 0.66 3 1 C1.84499901 3.31000199 0.60570059 4.29527356 -1.375 5.9375 C-3.69609686 7.86845505 -5.89368369 9.83553386 -8 12 C-8.66 11.67 -9.32 11.34 -10 11 C-6.7 7.37 -3.4 3.74 0 0 Z " fill="#292929" transform="translate(152,492)"/>
    <path d="M0 0 C-0.33 0.66 -0.66 1.32 -1 2 C-2.32 2 -3.64 2 -5 2 C-7.52554956 4.15414521 -9.15172888 6.22759333 -11 9 C-12.32 8.67 -13.64 8.34 -15 8 C-13.54405245 6.68485396 -12.08516421 5.37296283 -10.625 4.0625 C-9.81289063 3.33160156 -9.00078125 2.60070312 -8.1640625 1.84765625 C-4.98497515 -0.86661869 -3.92822346 -1.17846704 0 0 Z " fill="#212121" transform="translate(830,476)"/>
    <path d="M0 0 C0.66 1.32 1.32 2.64 2 4 C1.443125 4.4125 0.88625 4.825 0.3125 5.25 C-2.16195956 7.12256399 -4.5835229 9.05339344 -7 11 C-7.66 10.67 -8.32 10.34 -9 10 C-6.03 6.7 -3.06 3.4 0 0 Z " fill="#292929" transform="translate(445,303)"/>
    <path d="M0 0 C0.33 0.66 0.66 1.32 1 2 C-3.37792329 7.71562208 -3.37792329 7.71562208 -6.1875 9 C-6.785625 9 -7.38375 9 -8 9 C-8.66 8.34 -9.32 7.68 -10 7 C-6.7 4.69 -3.4 2.38 0 0 Z " fill="#E0E0E0" transform="translate(385,507)"/>
    <path d="M0 0 C0 0.99 0 1.98 0 3 C-0.66 3.66 -1.32 4.32 -2 5 C-2.71408334 6.98356483 -3.38617742 8.98315437 -4 11 C-5.65 11 -7.3 11 -9 11 C-7.59155282 7.78475695 -5.89655214 5.67816132 -3.375 3.25 C-2.74335938 2.63640625 -2.11171875 2.0228125 -1.4609375 1.390625 C-0.73777344 0.70226562 -0.73777344 0.70226562 0 0 Z " fill="#E5E5E5" transform="translate(233,333)"/>
    <path d="M0 0 C0.66 0.33 1.32 0.66 2 1 C1 4 1 4 -1.75 5.4375 C-2.8225 5.953125 -3.895 6.46875 -5 7 C-6.69859667 8.29241051 -8.37609523 9.61490475 -10 11 C-10.66 10.67 -11.32 10.34 -12 10 C-10.75160501 8.894019 -9.50120766 7.79029799 -8.25 6.6875 C-7.55390625 6.07261719 -6.8578125 5.45773437 -6.140625 4.82421875 C-4.14885494 3.12685266 -2.11101085 1.54522191 0 0 Z " fill="#242424" transform="translate(230,305)"/>
    <path d="M0 0 C0.66 0.33 1.32 0.66 2 1 C-0.625 5.875 -0.625 5.875 -4 7 C-4.33 7.99 -4.66 8.98 -5 10 C-6.65 10 -8.3 10 -10 10 C-6.66666667 6.66666667 -3.33333333 3.33333333 0 0 Z " fill="#D9D9D9" transform="translate(748,570)"/>
    <path d="M0 0 C2 3 2 3 2 6 C-0.64 6.99 -3.28 7.98 -6 9 C-4.68775452 5.06326356 -3.08089673 2.77280706 0 0 Z " fill="#1F1F1F" transform="translate(137,281)"/>
    <path d="M0 0 C0.66 0.33 1.32 0.66 2 1 C1.67 1.66 1.34 2.32 1 3 C-1.0625 3.625 -1.0625 3.625 -3 4 C-3 4.66 -3 5.32 -3 6 C-8.625 9 -8.625 9 -12 9 C-10.56771184 7.68181446 -9.12897516 6.37063296 -7.6875 5.0625 C-6.88699219 4.33160156 -6.08648437 3.60070312 -5.26171875 2.84765625 C-3 1 -3 1 0 0 Z " fill="#2E2E2E" transform="translate(414,234)"/>
    <path d="M0 0 C0.66 0.66 1.32 1.32 2 2 C1.625 4.125 1.625 4.125 1 6 C0.4225 6.103125 -0.155 6.20625 -0.75 6.3125 C-3.32049158 7.09792798 -4.93657284 8.30504197 -7 10 C-7.66 9.67 -8.32 9.34 -9 9 C-8.51789062 8.60167969 -8.03578125 8.20335937 -7.5390625 7.79296875 C-6.90742187 7.26316406 -6.27578125 6.73335937 -5.625 6.1875 C-4.99851562 5.66542969 -4.37203125 5.14335938 -3.7265625 4.60546875 C-1.7778952 2.91774261 -1.7778952 2.91774261 0 0 Z " fill="#272727" transform="translate(581,529)"/>
    <path d="M0 0 C1 3 1 3 1 6 C-0.28965176 7.37562854 -1.62689293 8.70766393 -3 10 C-3.99 11.485 -3.99 11.485 -5 13 C-5.66 12.67 -6.32 12.34 -7 12 C-5.44298069 7.32894208 -2.91552627 3.91294315 0 0 Z " fill="#D4D4D4" transform="translate(414,473)"/>
    <path d="M0 0 C2.475 0.495 2.475 0.495 5 1 C4.67 1.99 4.34 2.98 4 4 C4.66 4 5.32 4 6 4 C6.33 4.99 6.66 5.98 7 7 C2.25 6.25 2.25 6.25 0 4 C0 2.68 0 1.36 0 0 Z " fill="#141414" transform="translate(711,401)"/>
    <path d="M0 0 C0.66 0.33 1.32 0.66 2 1 C2 1.99 2 2.98 2 4 C0.54536519 4.38909985 -0.91391207 4.76088029 -2.375 5.125 C-3.18710938 5.33382812 -3.99921875 5.54265625 -4.8359375 5.7578125 C-5.55007812 5.83773437 -6.26421875 5.91765625 -7 6 C-7.66 5.34 -8.32 4.68 -9 4 C-7.54618103 3.30300448 -6.08677047 2.61766134 -4.625 1.9375 C-3.40683594 1.36322266 -3.40683594 1.36322266 -2.1640625 0.77734375 C-1.44992188 0.52082031 -0.73578125 0.26429688 0 0 Z " fill="#333333" transform="translate(243,248)"/>
    <path d="M0 0 C0.66 0.33 1.32 0.66 2 1 C1.67 1.99 1.34 2.98 1 4 C0.34 4 -0.32 4 -1 4 C-1.33 5.65 -1.66 7.3 -2 9 C-3.65 8.67 -5.3 8.34 -7 8 C-6.02133662 6.85373678 -5.04205413 5.70800212 -4.0625 4.5625 C-3.51722656 3.92441406 -2.97195312 3.28632812 -2.41015625 2.62890625 C-1.63204305 1.73008851 -0.84063472 0.84063472 0 0 Z " fill="#2A2A2A" transform="translate(206,542)"/>
    <path d="M0 0 C0.66 0.66 1.32 1.32 2 2 C1.01 3.485 1.01 3.485 0 5 C-0.66 5 -1.32 5 -2 5 C-3.80693756 6.78612311 -3.80693756 6.78612311 -5.625 9 C-6.57246094 10.11375 -6.57246094 10.11375 -7.5390625 11.25 C-8.02117187 11.8275 -8.50328125 12.405 -9 13 C-9.66 12.67 -10.32 12.34 -11 12 C-7.37 8.04 -3.74 4.08 0 0 Z " fill="#313131" transform="translate(385,474)"/>
    <path d="M0 0 C-1 3 -1 3 -2.828125 3.9921875 C-3.54484375 4.32476562 -4.2615625 4.65734375 -5 5 C-6.28016835 6.00435972 -7.53128122 7.04690261 -8.75 8.125 C-9.36359375 8.66382813 -9.9771875 9.20265625 -10.609375 9.7578125 C-11.06828125 10.16773438 -11.5271875 10.57765625 -12 11 C-10.82612037 6.01101158 -7.81687611 4.01341878 -3.875 1.13671875 C-2 0 -2 0 0 0 Z " fill="#CFCFCF" transform="translate(65,164)"/>
    <path d="M0 0 C0.33 0.66 0.66 1.32 1 2 C-2.625 7.875 -2.625 7.875 -6 9 C-6.66 8.34 -7.32 7.68 -8 7 C-5.36 4.69 -2.72 2.38 0 0 Z " fill="#D8D8D8" transform="translate(210,571)"/>
    <path d="M0 0 C0.66 0.99 1.32 1.98 2 3 C0.37660195 4.70884005 -1.29319053 6.37446717 -3 8 C-3.66 8 -4.32 8 -5 8 C-5.33 8.66 -5.66 9.32 -6 10 C-6.33 9.01 -6.66 8.02 -7 7 C-4.69 4.69 -2.38 2.38 0 0 Z " fill="#161616" transform="translate(401,244)"/>
    <path d="M0 0 C0.33 0.66 0.66 1.32 1 2 C1.66 2.33 2.32 2.66 3 3 C1.8553125 3.6496875 1.8553125 3.6496875 0.6875 4.3125 C-1.58093768 5.73686785 -3.2199723 7.03260097 -5 9 C-5.99 8.67 -6.98 8.34 -8 8 C-5.36 5.36 -2.72 2.72 0 0 Z " fill="#CBCBCB" transform="translate(475,532)"/>
    <path d="M0 0 C0.66 0.33 1.32 0.66 2 1 C2 1.66 2 2.32 2 3 C1.34 3 0.68 3 0 3 C-0.33 3.99 -0.66 4.98 -1 6 C-3.55170871 7.5838192 -6.07606119 8.37344168 -9 9 C-6 6 -3 3 0 0 Z " fill="#2E2E2E" transform="translate(789,505)"/>
    <path d="M0 0 C0.90492188 0.02320313 1.80984375 0.04640625 2.7421875 0.0703125 C4.10730469 0.09738281 4.10730469 0.09738281 5.5 0.125 C6.19867187 0.14820313 6.89734375 0.17140625 7.6171875 0.1953125 C4.36187942 1.87958059 1.11248044 3.08317384 -2.3828125 4.1953125 C-3.0428125 3.5353125 -3.7028125 2.8753125 -4.3828125 2.1953125 C-2.3828125 0.1953125 -2.3828125 0.1953125 0 0 Z " fill="#191919" transform="translate(606.3828125,506.8046875)"/>
    <path d="M0 0 C0.33 1.32 0.66 2.64 1 4 C-0.6875 6.3125 -0.6875 6.3125 -3 8 C-4.32 7.67 -5.64 7.34 -7 7 C-4.69 4.69 -2.38 2.38 0 0 Z " fill="#C9C9C9" transform="translate(551,592)"/>
    <path d="M0 0 C0.33 1.32 0.66 2.64 1 4 C-0.6875 6.3125 -0.6875 6.3125 -3 8 C-4.32 7.67 -5.64 7.34 -7 7 C-4.69 4.69 -2.38 2.38 0 0 Z " fill="#C9C9C9" transform="translate(559,584)"/>
    <path d="M0 0 C0.33 1.32 0.66 2.64 1 4 C-0.6875 6.3125 -0.6875 6.3125 -3 8 C-4.32 7.67 -5.64 7.34 -7 7 C-4.69 4.69 -2.38 2.38 0 0 Z " fill="#C9C9C9" transform="translate(575,568)"/>
    <path d="M0 0 C0.33 1.32 0.66 2.64 1 4 C-0.6875 6.3125 -0.6875 6.3125 -3 8 C-4.32 7.67 -5.64 7.34 -7 7 C-4.69 4.69 -2.38 2.38 0 0 Z " fill="#C9C9C9" transform="translate(583,560)"/>
    <path d="M0 0 C0.91007812 0.00902344 1.82015625 0.01804687 2.7578125 0.02734375 C3.45648438 0.03894531 4.15515625 0.05054688 4.875 0.0625 C4.875 0.3925 4.875 0.7225 4.875 1.0625 C4.24851562 1.09988281 3.62203125 1.13726562 2.9765625 1.17578125 C2.15929687 1.24152344 1.34203125 1.30726563 0.5 1.375 C-0.71816406 1.46201172 -0.71816406 1.46201172 -1.9609375 1.55078125 C-4.50421338 1.89240528 -4.50421338 1.89240528 -6.125 5.0625 C-8.75 5.25 -8.75 5.25 -11.125 5.0625 C-7.2521174 1.06052131 -5.57273276 -0.07144529 0 0 Z " fill="#313131" transform="translate(463.125,433.9375)"/>
    <path d="M0 0 C1 3 1 3 0.3125 5 C-1.17477001 7.26631621 -2.75769234 8.50512823 -5 10 C-5.66 9.67 -6.32 9.34 -7 9 C-4.69 6.03 -2.38 3.06 0 0 Z " fill="#262626" transform="translate(253,360)"/>
    <path d="M0 0 C2.64752004 2.57784846 4.94432065 4.91648098 7 8 C6.01 8.33 5.02 8.66 4 9 C1.4375 6.75 1.4375 6.75 -1 4 C-0.8125 1.6875 -0.8125 1.6875 0 0 Z " fill="#242424" transform="translate(398,322)"/>
    <path d="M0 0 C1 3 1 3 0 6 C-1.87617698 7.84499398 -3.92737609 9.3683599 -6 11 C-6.66 10.67 -7.32 10.34 -8 10 C-7.59007812 9.52949219 -7.18015625 9.05898438 -6.7578125 8.57421875 C-6.21898437 7.95160156 -5.68015625 7.32898438 -5.125 6.6875 C-4.59132813 6.07261719 -4.05765625 5.45773437 -3.5078125 4.82421875 C-1.8359553 2.86501788 -1.8359553 2.86501788 0 0 Z " fill="#D5D5D5" transform="translate(946,818)"/>
    <path d="M0 0 C0 0.99 0 1.98 0 3 C-0.99 3.495 -0.99 3.495 -2 4 C-1.34 2.68 -0.68 1.36 0 0 Z M-2 4 C-2 5.65 -2 7.3 -2 9 C-4.31 9 -6.62 9 -9 9 C-4.25 4 -4.25 4 -2 4 Z " fill="#CACACA" transform="translate(522,621)"/>
    <path d="M0 0 C0.33 1.32 0.66 2.64 1 4 C-1.3125 6.0625 -1.3125 6.0625 -4 8 C-4.99 7.67 -5.98 7.34 -7 7 C-4.69 4.69 -2.38 2.38 0 0 Z " fill="#C6C6C6" transform="translate(543,600)"/>
    <path d="M0 0 C0.33 0.66 0.66 1.32 1 2 C-2.625 7.875 -2.625 7.875 -6 9 C-6.66 8.34 -7.32 7.68 -8 7 C-5.36 4.69 -2.72 2.38 0 0 Z " fill="#E4E4E4" transform="translate(394,499)"/>
    <path d="M0 0 C-0.39803561 2.88575819 -0.79009069 3.82189513 -3.0625 5.75 C-3.701875 6.1625 -4.34125 6.575 -5 7 C-5.66 6.67 -6.32 6.34 -7 6 C-6.67 5.01 -6.34 4.02 -6 3 C-5.34 3 -4.68 3 -4 3 C-4 2.34 -4 1.68 -4 1 C-2 0 -2 0 0 0 Z " fill="#131313" transform="translate(429,576)"/>
    <path d="M0 0 C0.66 0.33 1.32 0.66 2 1 C-2.75 6.875 -2.75 6.875 -5 8 C-5.66 8.99 -6.32 9.98 -7 11 C-7.33 9.68 -7.66 8.36 -8 7 C-5.36 4.69 -2.72 2.38 0 0 Z " fill="#202020" transform="translate(762,528)"/>
    <path d="M0 0 C0.33 0.66 0.66 1.32 1 2 C0.525625 2.556875 0.05125 3.11375 -0.4375 3.6875 C-2.12395996 6.18346074 -2.58953107 8.0446237 -3 11 C-3.99 10.34 -4.98 9.68 -6 9 C-4.47291037 5.56404834 -2.40072955 2.88087546 0 0 Z " fill="#D9D9D9" transform="translate(163,514)"/>
    <path d="M0 0 C0.33 1.32 0.66 2.64 1 4 C-1.97 6.475 -1.97 6.475 -5 9 C-5.66 8.34 -6.32 7.68 -7 7 C-4.69 4.69 -2.38 2.38 0 0 Z " fill="#CFCFCF" transform="translate(476,304)"/>
    <path d="M0 0 C0.66 0.33 1.32 0.66 2 1 C2 1.99 2 2.98 2 4 C1.236875 4.268125 0.47375 4.53625 -0.3125 4.8125 C-2.87380884 5.94424112 -4.19692938 6.91223401 -6 9 C-6 5 -6 5 -4.6875 3.515625 C-3.125 2.34375 -1.5625 1.171875 0 0 Z " fill="#2C2C2C" transform="translate(46,147)"/>
    <path d="M0 0 C2.1875 -0.3125 2.1875 -0.3125 5 0 C7.8125 2.5 7.8125 2.5 10 5 C9.01 5.495 9.01 5.495 8 6 C1.29411765 2.58823529 1.29411765 2.58823529 0 0 Z " fill="#D1D1D1" transform="translate(56,810)"/>
    <path d="M0 0 C0.556875 0.226875 1.11375 0.45375 1.6875 0.6875 C-0.6225 2.0075 -2.9325 3.3275 -5.3125 4.6875 C-5.3125 5.0175 -5.3125 5.3475 -5.3125 5.6875 C-6.9625 5.6875 -8.6125 5.6875 -10.3125 5.6875 C-7.50687824 2.58654963 -4.3951302 -0.59393651 0 0 Z " fill="#222222" transform="translate(362.3125,496.3125)"/>
    <path d="M0 0 C1.485 0.99 1.485 0.99 3 2 C3.1875 5.125 3.1875 5.125 3 8 C2.01 8.495 2.01 8.495 1 9 C-1.125 2.25 -1.125 2.25 0 0 Z " fill="#0C0C0C" transform="translate(401,363)"/>
    <path d="M0 0 C1.32 0 2.64 0 4 0 C4.66 1.32 5.32 2.64 6 4 C5.01 5.485 5.01 5.485 4 7 C2.35 5.35 0.7 3.7 -1 2 C-0.67 1.34 -0.34 0.68 0 0 Z " fill="#E0E0E0" transform="translate(877,305)"/>
    <path d="M0 0 C0.66 1.32 1.32 2.64 2 4 C1.01 4.495 1.01 4.495 0 5 C-0.33 5.99 -0.66 6.98 -1 8 C-2.65 7.67 -4.3 7.34 -6 7 C-4.02 4.69 -2.04 2.38 0 0 Z " fill="#D0D0D0" transform="translate(760,772)"/>
    <path d="M0 0 C2.00720923 0.28674418 4.0085944 0.61866701 6 1 C5.34 1.66 4.68 2.32 4 3 C4 3.99 4 4.98 4 6 C2.35 4.35 0.7 2.7 -1 1 C-0.67 0.67 -0.34 0.34 0 0 Z " fill="#232323" transform="translate(407,576)"/>
    <path d="M0 0 C0.66 0.33 1.32 0.66 2 1 C2 1.99 2 2.98 2 4 C0.02 4.99 -1.96 5.98 -4 7 C-2.92598892 4.08482708 -2.22189824 2.22189824 0 0 Z " fill="#282828" transform="translate(787,571)"/>
    <path d="M0 0 C0.33 1.32 0.66 2.64 1 4 C-1.3125 6.0625 -1.3125 6.0625 -4 8 C-4.99 7.67 -5.98 7.34 -7 7 C-4.69 4.69 -2.38 2.38 0 0 Z " fill="#C6C6C6" transform="translate(455,552)"/>
    <path d="M0 0 C0.66 0.33 1.32 0.66 2 1 C0.3125 4 0.3125 4 -2 7 C-4.75 7.375 -4.75 7.375 -7 7 C-4.66666667 4.66666667 -2.33333333 2.33333333 0 0 Z " fill="#D9D9D9" transform="translate(829,502)"/>
    <path d="M0 0 C2.3125 0.1875 2.3125 0.1875 5 1 C6.8125 3.5625 6.8125 3.5625 8 6 C5 6 5 6 3.61328125 4.6875 C2.40885417 3.125 1.20442708 1.5625 0 0 Z " fill="#181818" transform="translate(209,492)"/>
    <path d="M0 0 C0 3.66842255 -0.79029126 5.10451959 -3 8 C-5.6875 8.8125 -5.6875 8.8125 -8 9 C-7.04270084 7.87411986 -6.08412105 6.7493285 -5.125 5.625 C-4.59132813 4.99851562 -4.05765625 4.37203125 -3.5078125 3.7265625 C-2.38567993 2.44163349 -1.20628025 1.20628025 0 0 Z " fill="#DADADA" transform="translate(466,315)"/>
    <path d="M0 0 C2.96865509 2.54456151 4.3619751 5.48994665 6 9 C5.01 9.33 4.02 9.66 3 10 C0.59185923 6.48812804 -0.36629408 4.27343092 0 0 Z " fill="#1F1F1F" transform="translate(708,316)"/>
    <path d="M0 0 C2.3125 -0.3125 2.3125 -0.3125 5 0 C6.875 2.375 6.875 2.375 8 5 C7.67 5.66 7.34 6.32 7 7 C5.83040013 6.02433888 4.66438823 5.044375 3.5 4.0625 C2.8503125 3.51722656 2.200625 2.97195313 1.53125 2.41015625 C1.0259375 1.94480469 0.520625 1.47945313 0 1 C0 0.67 0 0.34 0 0 Z " fill="#212121" transform="translate(424,266)"/>
    <path d="M0 0 C0.99 0 1.98 0 3 0 C1.60667426 3.36720387 0.0210714 4.9859524 -3 7 C-2.25 2.25 -2.25 2.25 0 0 Z " fill="#151515" transform="translate(184,263)"/>
    <path d="M0 0 C0.33 0.66 0.66 1.32 1 2 C0.67 2.99 0.34 3.98 0 5 C0.66 5 1.32 5 2 5 C1.67 5.66 1.34 6.32 1 7 C0.01 7.33 -0.98 7.66 -2 8 C-2.66 7.67 -3.32 7.34 -4 7 C-2.92598892 4.08482708 -2.22189824 2.22189824 0 0 Z " fill="#232323" transform="translate(36,157)"/>
    <path d="M0 0 C0.99 0.33 1.98 0.66 3 1 C2.1875 3.4375 2.1875 3.4375 1 6 C0.01 6.33 -0.98 6.66 -2 7 C-2.33 6.34 -2.66 5.68 -3 5 C-1.5625 2.375 -1.5625 2.375 0 0 Z " fill="#161616" transform="translate(862,771)"/>
    <path d="M0 0 C0.33 1.32 0.66 2.64 1 4 C0.34 4 -0.32 4 -1 4 C-1.33 4.66 -1.66 5.32 -2 6 C-3.32 6 -4.64 6 -6 6 C-4 4 -2 2 0 0 Z " fill="#DDDDDD" transform="translate(726,589)"/>
    <path d="M0 0 C0 3.90838866 -1.50567876 5.11594107 -4 8 C-4.99 7.67 -5.98 7.34 -7 7 C-4.66666667 4.66666667 -2.33333333 2.33333333 0 0 Z " fill="#DEDEDE" transform="translate(809,519)"/>
    <path d="M0 0 C0.33 0.99 0.66 1.98 1 3 C-2.0247093 7.70510336 -2.0247093 7.70510336 -5.14453125 8.6484375 C-5.75683594 8.76445312 -6.36914062 8.88046875 -7 9 C-6.02180976 7.68677212 -5.0424189 6.37443848 -4.0625 5.0625 C-3.51722656 4.33160156 -2.97195313 3.60070312 -2.41015625 2.84765625 C-1 1 -1 1 0 0 Z " fill="#E1E1E1" transform="translate(402,490)"/>
    <path d="M0 0 C0.66 0.33 1.32 0.66 2 1 C-0.64 3.64 -3.28 6.28 -6 9 C-6.66 8.34 -7.32 7.68 -8 7 C-7.01 6.67 -6.02 6.34 -5 6 C-5 5.34 -5 4.68 -5 4 C-3.37373596 2.61767557 -1.7074998 1.28062485 0 0 Z " fill="#2E2E2E" transform="translate(813,485)"/>
    <path d="M0 0 C0.99 0.99 1.98 1.98 3 3 C3 3.66 3 4.32 3 5 C2.360625 5.28875 1.72125 5.5775 1.0625 5.875 C-1.15206079 6.82823451 -1.15206079 6.82823451 -2 9 C-2.66 8.67 -3.32 8.34 -4 8 C-2.68 5.36 -1.36 2.72 0 0 Z " fill="#252525" transform="translate(348,426)"/>
    <path d="M0 0 C1.24546405 2.49092811 0.7767578 3.41080733 0 6 C-0.66 6 -1.32 6 -2 6 C-2.33 6.66 -2.66 7.32 -3 8 C-4.32 7.34 -5.64 6.68 -7 6 C-6.21625 5.566875 -5.4325 5.13375 -4.625 4.6875 C-1.78301625 3.10779753 -1.78301625 3.10779753 0 0 Z " fill="#D1D1D1" transform="translate(159,376)"/>
    <path d="M0 0 C0.66 0.33 1.32 0.66 2 1 C2 1.66 2 2.32 2 3 C-1.08888522 5.05925681 -1.70935927 5.2390374 -5.1875 5.125 C-7.0746875 5.063125 -7.0746875 5.063125 -9 5 C-9 4.67 -9 4.34 -9 4 C-7.02 3.67 -5.04 3.34 -3 3 C-3 2.34 -3 1.68 -3 1 C-2.01 0.67 -1.02 0.34 0 0 Z " fill="#1B1B1B" transform="translate(153,378)"/>
    <path d="M0 0 C1 2 1 2 0.3125 4.5 C-1.15567038 7.29651501 -2.09303901 7.93411431 -5 9 C-3.7508258 5.54074837 -2.32472205 2.85306797 0 0 Z " fill="#D4D4D4" transform="translate(221,346)"/>
    <path d="M0 0 C3.65316671 1.24976756 4.78065836 1.67098753 7 5 C5.66666667 5.66666667 4.33333333 6.33333333 3 7 C2.896875 6.360625 2.79375 5.72125 2.6875 5.0625 C2.460625 4.381875 2.23375 3.70125 2 3 C1.01 2.67 0.02 2.34 -1 2 C-0.67 1.34 -0.34 0.68 0 0 Z " fill="#D4D4D4" transform="translate(417,261)"/>
    <path d="M0 0 C3.3 0 6.6 0 10 0 C9 2 9 2 7.22265625 2.703125 C6.15337891 2.97382812 6.15337891 2.97382812 5.0625 3.25 C3.99708984 3.53617188 3.99708984 3.53617188 2.91015625 3.828125 C1.96462891 3.91320312 1.96462891 3.91320312 1 4 C0.34 3.34 -0.32 2.68 -1 2 C-0.67 1.34 -0.34 0.68 0 0 Z " fill="#ECECEC" transform="translate(708,596)"/>
    <path d="M0 0 C1.32 0.66 2.64 1.32 4 2 C2.35 3.32 0.7 4.64 -1 6 C-1.66 5.01 -2.32 4.02 -3 3 C-2.01 2.67 -1.02 2.34 0 2 C0 1.34 0 0.68 0 0 Z " fill="#DEDEDE" transform="translate(192,551)"/>
    <path d="M0 0 C4.875 2.75 4.875 2.75 6 5 C4.68 5.33 3.36 5.66 2 6 C1.01 4.35 0.02 2.7 -1 1 C-0.67 0.67 -0.34 0.34 0 0 Z " fill="#212121" transform="translate(410,550)"/>
    <path d="M0 0 C0.66 0.33 1.32 0.66 2 1 C0.66667905 4.99996286 -1.4957827 5.83782337 -5 8 C-5.66 7.67 -6.32 7.34 -7 7 C-5.37660195 5.29115995 -3.70680947 3.62553283 -2 2 C-1.34 2 -0.68 2 0 2 C0 1.34 0 0.68 0 0 Z " fill="#2F2F2F" transform="translate(451,523)"/>
    <path d="M0 0 C0 3.58912412 -0.66436554 4.10857029 -3 6.6875 C-3.556875 7.31011719 -4.11375 7.93273437 -4.6875 8.57421875 C-5.120625 9.04472656 -5.55375 9.51523437 -6 10 C-6.66 9.34 -7.32 8.68 -8 8 C-5.36 5.36 -2.72 2.72 0 0 Z " fill="#D8D8D8" transform="translate(406,271)"/>
    <path d="M0 0 C0.66 0.33 1.32 0.66 2 1 C2 1.99 2 2.98 2 4 C1.34 4 0.68 4 0 4 C-0.33 4.66 -0.66 5.32 -1 6 C-2.32 5.67 -3.64 5.34 -5 5 C-3.35 3.35 -1.7 1.7 0 0 Z " fill="#CACACA" transform="translate(412,265)"/>
    <path d="M0 0 C0.66 0.33 1.32 0.66 2 1 C0.35 2.65 -1.3 4.3 -3 6 C-3.66 5.67 -4.32 5.34 -5 5 C-5 4.01 -5 3.02 -5 2 C-2.625 0.9375 -2.625 0.9375 0 0 Z " fill="#282828" transform="translate(56,142)"/>
    <path d="M0 0 C3.465 1.98 3.465 1.98 7 4 C6.67 4.66 6.34 5.32 6 6 C3.11562221 4.70700306 1.12780579 3.34058637 -1 1 C-0.67 0.67 -0.34 0.34 0 0 Z " fill="#EBEBEB" transform="translate(646,556)"/>
    <path d="M0 0 C0.99 0.33 1.98 0.66 3 1 C1.35 2.65 -0.3 4.3 -2 6 C-2 2 -2 2 0 0 Z " fill="#1B1B1B" transform="translate(141,504)"/>
    <path d="M0 0 C0 0.99 0 1.98 0 3 C-0.61875 3.28875 -1.2375 3.5775 -1.875 3.875 C-4.13325765 4.93720042 -4.13325765 4.93720042 -6 7 C-6.66 6.34 -7.32 5.68 -8 5 C-2.25 0 -2.25 0 0 0 Z " fill="#262626" transform="translate(374,487)"/>
    <path d="M0 0 C2.9375 0.375 2.9375 0.375 6 1 C6.33 1.66 6.66 2.32 7 3 C5.35 3.66 3.7 4.32 2 5 C1.34 3.35 0.68 1.7 0 0 Z " fill="#131313" transform="translate(831,475)"/>
    <path d="M0 0 C1.32 0 2.64 0 4 0 C4 0.66 4 1.32 4 2 C4.66 2.33 5.32 2.66 6 3 C6 3.99 6 4.98 6 6 C3.5625 5.25 3.5625 5.25 1 4 C0.1875 1.875 0.1875 1.875 0 0 Z " fill="#474747" transform="translate(98,448)"/>
    <path d="M0 0 C2.475 0.99 2.475 0.99 5 2 C4.34 3.32 3.68 4.64 3 6 C1.68 4.68 0.36 3.36 -1 2 C-0.67 1.34 -0.34 0.68 0 0 Z " fill="#D8D8D8" transform="translate(877,384)"/>
    <path d="M0 0 C1.32 0.99 2.64 1.98 4 3 C3.34 4.65 2.68 6.3 2 8 C0.4375 6.25 0.4375 6.25 -1 4 C-0.6875 1.75 -0.6875 1.75 0 0 Z " fill="#EBEBEB" transform="translate(193,337)"/>
    <path d="M0 0 C0.66 0.33 1.32 0.66 2 1 C0.68 2.65 -0.64 4.3 -2 6 C-3.32 5.34 -4.64 4.68 -6 4 C-4.02 2.68 -2.04 1.36 0 0 Z " fill="#D4D4D4" transform="translate(254,317)"/>
    <path d="M0 0 C-1.20819367 3.624581 -1.80341913 3.40170957 -5 5 C-5.66 4.34 -6.32 3.68 -7 3 C-4.49955934 -0.00052879 -4.2621484 0 0 0 Z " fill="#2A2A2A" transform="translate(718,307)"/>
    <path d="M0 0 C0.66 0.33 1.32 0.66 2 1 C1 4 1 4 -2.0625 5.6875 C-3.031875 6.120625 -4.00125 6.55375 -5 7 C-4.60196439 4.11424181 -4.20990931 3.17810487 -1.9375 1.25 C-1.298125 0.8375 -0.65875 0.425 0 0 Z " fill="#252525" transform="translate(669,229)"/>
    <path d="M0 0 C1.65 0 3.3 0 5 0 C4.34 1.32 3.68 2.64 3 4 C0.36 4 -2.28 4 -5 4 C-5 3.67 -5 3.34 -5 3 C-3.02 2.67 -1.04 2.34 1 2 C0.67 1.34 0.34 0.68 0 0 Z " fill="#303030" transform="translate(510,626)"/>
    <path d="M0 0 C0.86625 0.3403125 0.86625 0.3403125 1.75 0.6875 C0.1 2.0075 -1.55 3.3275 -3.25 4.6875 C-4.24 4.0275 -5.23 3.3675 -6.25 2.6875 C-2.80384615 -0.38942308 -2.80384615 -0.38942308 0 0 Z " fill="#353535" transform="translate(218.25,534.3125)"/>
    <path d="M0 0 C1.32 0.66 2.64 1.32 4 2 C2.625 3.5 2.625 3.5 1 5 C0.34 5 -0.32 5 -1 5 C-1.33 4.01 -1.66 3.02 -2 2 C-1.34 1.34 -0.68 0.68 0 0 Z " fill="#171717" transform="translate(370,513)"/>
    <path d="M0 0 C2 3 2 3 2 6 C1.01 6.33 0.02 6.66 -1 7 C-1.66 5.68 -2.32 4.36 -3 3 C-2.01 2.01 -1.02 1.02 0 0 Z " fill="#DBDBDB" transform="translate(152,486)"/>
    <path d="M0 0 C0.66 0.33 1.32 0.66 2 1 C0.7260411 3.03833424 -0.61061923 5.03852126 -2 7 C-2.66 7 -3.32 7 -4 7 C-2.92598892 4.08482708 -2.22189824 2.22189824 0 0 Z " fill="#181818" transform="translate(413,472)"/>
    <path d="M0 0 C0.66 0.33 1.32 0.66 2 1 C1.67 1.66 1.34 2.32 1 3 C2.32 3 3.64 3 5 3 C4.34 4.32 3.68 5.64 3 7 C1.68 5.35 0.36 3.7 -1 2 C-0.67 1.34 -0.34 0.68 0 0 Z " fill="#1E1E1E" transform="translate(383,337)"/>
    <path d="M0 0 C0.66 0.33 1.32 0.66 2 1 C0.25 4.875 0.25 4.875 -2 6 C-2.66 5.34 -3.32 4.68 -4 4 C-2.68 2.68 -1.36 1.36 0 0 Z " fill="#1A1A1A" transform="translate(467,310)"/>
    <path d="M0 0 C2.0625 0.4375 2.0625 0.4375 4 1 C3.34 1 2.68 1 2 1 C2 1.66 2 2.32 2 3 C-0.5 4.625 -0.5 4.625 -3 6 C-3 2.46262213 -2.35038729 2.35038729 0 0 Z " fill="#DEDEDE" transform="translate(179,236)"/>
</svg>
